<svg xmlns="http://www.w3.org/2000/svg" version="1.1" xml:space="preserve" class="u-svg-content" viewBox="0 0 128 128"
     id="svg-f002">
    <path d="m117.4 76c1.5 0 2.7 1.2 2.7 2.7v38.7c0 1.5-1.2 2.7-2.7 2.7h-38.7c-1.5 0-2.7-1.2-2.7-2.7v-38.7c0-1.5 1.2-2.7 2.7-2.7h38.7m0-7.9h-38.7c-5.8 0-10.6 4.8-10.6 10.6v38.7c0 5.8 4.8 10.6 10.6 10.6h38.7c5.8 0 10.6-4.8 10.6-10.6v-38.7c0-5.8-4.8-10.6-10.6-10.6z">

    </path>
    <path d="m49.3 7.9c1.5 0 2.7 1.2 2.7 2.7v38.7c0 1.5-1.2 2.7-2.7 2.7h-38.7c-1.5 0-2.7-1.2-2.7-2.7v-38.7c0-1.5 1.2-2.7 2.7-2.7h38.7m0-7.9h-38.7c-5.8 0-10.6 4.8-10.6 10.6v38.7c0 5.8 4.8 10.6 10.6 10.6h38.7c5.8 0 10.6-4.8 10.6-10.6v-38.7c0-5.8-4.8-10.6-10.6-10.6z">

    </path>
    <path d="m90 7.9c0.7 0 1.4 0.3 1.9 0.8l27.4 27.4c1 1 1 2.7 0 3.8l-27.4 27.3c-0.5 0.5-1.2 0.8-1.9 0.8s-1.4-0.3-1.9-0.8l-27.3-27.3c-1-1-1-2.7 0-3.8l27.3-27.4c0.6-0.5 1.3-0.8 1.9-0.8m0-7.9c-2.8 0-5.5 1.1-7.5 3.1l-27.3 27.4c-2 2-3.1 4.7-3.1 7.5s1.1 5.5 3.1 7.5l27.4 27.4c2 2 4.7 3.1 7.5 3.1s5.5-1.1 7.5-3.1l27.4-27.4c2-2 3.1-4.7 3.1-7.5s-1.1-5.5-3.1-7.5l-27.5-27.4c-2-2-4.6-3.1-7.5-3.1z">

    </path>
    <path d="m49.3 76c1.5 0 2.7 1.2 2.7 2.7v38.7c0 1.5-1.2 2.7-2.7 2.7h-38.7c-1.5 0-2.7-1.2-2.7-2.7v-38.7c0-1.5 1.2-2.7 2.7-2.7h38.7m0-7.9h-38.7c-5.8 0-10.6 4.8-10.6 10.6v38.7c0 5.8 4.8 10.6 10.6 10.6h38.7c5.8 0 10.6-4.8 10.6-10.6v-38.7c0-5.8-4.8-10.6-10.6-10.6z">

    </path>
</svg>