<svg xmlns="http://www.w3.org/2000/svg" xmlns:xlink="http://www.w3.org/1999/xlink" version="1.1" xml:space="preserve" class="u-svg-content" viewBox="0 0 128 128" id="svg-bd3b"><path d="m78.9 15.9c2.1 0 3.7 1.7 3.7 3.7v3.7h-37.2v-3.7c0-2 1.7-3.7 3.7-3.7h29.8m39.7 14.8-11.6 34.5c-0.5 1.5-1.9 2.5-3.5 2.5h-20.9v-3.7c0-2-1.7-3.7-3.7-3.7h-29.8c-2.1 0-3.7 1.7-3.7 3.7v3.7h-20.9c-1.6 0-3-1-3.5-2.5l-11.6-34.5h109.2m1.5 19.1v58.6c0 2-1.7 3.7-3.7 3.7h-104.7c-2.1 0-3.7-1.7-3.7-3.7v-58.6l5.9 17.7c1.5 4.5 5.8 7.6 10.6 7.6h20.9v3.7c0 2 1.7 3.7 3.7 3.7h29.8c2.1 0 3.7-1.7 3.7-3.7v-3.7h20.9c4.8 0 9.1-3 10.6-7.6l6-17.7m-44.9 17.9v7.4h-22.4v-7.4h22.4m15.3-44.9v-3.2c0-6.4-5.2-11.6-11.6-11.6h-29.8c-6.4 0-11.7 5.2-11.7 11.6v3.2h-29.5c-4.4 0-7.9 3.5-7.9 7.9v77.7c0 6.4 5.2 11.6 11.7 11.6h104.7c6.4 0 11.7-5.2 11.7-11.6v-77.7c0-4.4-3.6-7.9-7.9-7.9h-29.7z"></path></svg>